<svg width="482" height="65" viewBox="0 0 482 65" fill="none" xmlns="http://www.w3.org/2000/svg">
<rect x="0.5" y="0.949951" width="481" height="63" rx="14.5" stroke="black"/>
<path d="M134.286 30.2956H133.4V30.25H123.5V34.65H129.717C128.81 37.2113 126.373 39.05 123.5 39.05C119.855 39.05 116.9 36.0948 116.9 32.45C116.9 28.8051 119.855 25.85 123.5 25.85C125.182 25.85 126.713 26.4847 127.879 27.5214L130.99 24.4101C129.025 22.5791 126.397 21.45 123.5 21.45C117.425 21.45 112.5 26.3752 112.5 32.45C112.5 38.5247 117.425 43.45 123.5 43.45C129.575 43.45 134.5 38.5247 134.5 32.45C134.5 31.7124 134.424 30.9925 134.286 30.2956Z" fill="#FFC107"/>
<path d="M113.768 27.33L117.382 29.9805C118.36 27.5594 120.728 25.85 123.5 25.85C125.182 25.85 126.713 26.4847 127.878 27.5214L130.99 24.4101C129.025 22.5791 126.397 21.45 123.5 21.45C119.275 21.45 115.611 23.8353 113.768 27.33Z" fill="#FF3D00"/>
<path d="M123.5 43.45C126.341 43.45 128.923 42.3626 130.875 40.5944L127.47 37.7135C126.366 38.55 124.993 39.05 123.5 39.05C120.639 39.05 118.21 37.2256 117.294 34.6797L113.707 37.4434C115.528 41.0058 119.225 43.45 123.5 43.45Z" fill="#4CAF50"/>
<path d="M134.286 30.2957H133.4V30.25H123.5V34.65H129.717C129.281 35.8804 128.49 36.9413 127.469 37.714C127.469 37.7135 127.47 37.7135 127.47 37.713L130.875 40.5939C130.634 40.8127 134.5 37.95 134.5 32.45C134.5 31.7125 134.424 30.9925 134.286 30.2957Z" fill="#1976D2"/>
<path d="M152.926 39.36C155.016 39.36 156.6 38.414 157.392 36.368H160.12C159.262 39.536 156.688 41.648 152.904 41.648C148.416 41.648 145.402 38.458 145.402 33.728C145.402 29.02 148.35 25.5659 152.992 25.5659C156.688 25.5659 159.262 27.5899 160.12 30.824H157.392C156.622 28.822 155.038 27.832 152.948 27.832C149.89 27.832 147.976 30.208 147.976 33.64C147.976 37.05 149.868 39.36 152.926 39.36ZM161.97 35.818C161.97 32.342 164.346 29.944 167.756 29.944C171.188 29.944 173.564 32.342 173.564 35.818C173.564 39.294 171.188 41.67 167.756 41.67C164.346 41.67 161.97 39.294 161.97 35.818ZM164.434 35.796C164.434 38.106 165.754 39.602 167.756 39.602C169.78 39.602 171.1 38.106 171.1 35.796C171.1 33.464 169.78 31.99 167.756 31.99C165.754 31.99 164.434 33.464 164.434 35.796ZM181.948 29.966C184.786 29.966 186.458 31.836 186.458 34.718V41.45H184.038V35.224C184.038 33.112 182.96 32.078 181.31 32.078C179.44 32.078 178.428 33.398 178.428 35.4V41.45H176.03V30.186H178.208L178.384 31.704C179.022 30.626 180.232 29.966 181.948 29.966ZM192.874 41.45C190.916 41.45 189.838 40.35 189.838 38.392V32.32H187.946V30.186H188.914C189.618 30.186 189.838 29.834 189.838 29.13V27.172H192.236V30.186H194.854V32.32H192.236V37.93C192.236 38.832 192.5 39.316 193.556 39.316H194.832V41.45H192.874ZM196.974 28.074V25.5659H199.636V28.074H196.974ZM197.106 41.45V30.186H199.504V41.45H197.106ZM208.309 29.966C211.147 29.966 212.819 31.836 212.819 34.718V41.45H210.399V35.224C210.399 33.112 209.321 32.078 207.671 32.078C205.801 32.078 204.789 33.398 204.789 35.4V41.45H202.391V30.186H204.569L204.745 31.704C205.383 30.626 206.593 29.966 208.309 29.966ZM223.107 30.164H225.417V41.45H223.261L223.085 39.998C222.469 41.01 221.347 41.67 219.895 41.67C217.079 41.67 215.429 39.778 215.429 36.896V30.164H217.739V36.566C217.739 38.612 218.795 39.58 220.401 39.558C222.161 39.536 223.107 38.282 223.107 36.346V30.164ZM239.016 35.576V36.478H230.392C230.436 38.59 231.822 39.69 233.582 39.69C234.902 39.69 236.002 39.074 236.464 37.842H238.906C238.312 40.13 236.288 41.67 233.538 41.67C230.172 41.67 227.95 39.338 227.95 35.796C227.95 32.276 230.172 29.944 233.516 29.944C236.794 29.944 239.016 32.188 239.016 35.576ZM233.516 31.858C231.91 31.858 230.59 32.848 230.414 34.806H236.574C236.442 32.848 235.144 31.858 233.516 31.858ZM247.156 30.186L249.356 38.81L251.908 30.186H254.416L256.924 38.81L259.058 30.186H261.588L258.398 41.45H255.692L253.14 32.87L250.566 41.45H247.838L244.626 30.186H247.156ZM263.253 28.074V25.5659H265.915V28.074H263.253ZM263.385 41.45V30.186H265.783V41.45H263.385ZM272.366 41.45C270.408 41.45 269.33 40.35 269.33 38.392V32.32H267.438V30.186H268.406C269.11 30.186 269.33 29.834 269.33 29.13V27.172H271.728V30.186H274.346V32.32H271.728V37.93C271.728 38.832 271.992 39.316 273.048 39.316H274.324V41.45H272.366ZM282.56 29.944C284.694 29.944 287.048 31.088 287.048 34.938V41.45H284.65V35.312C284.65 33.134 283.616 32.144 281.944 32.166C280.03 32.166 278.996 33.486 278.996 35.378V41.45H276.598V25.104H278.996V31.638C279.656 30.582 280.932 29.944 282.56 29.944ZM300.908 32.694H308.278V41.472H306.232L305.968 39.272C304.846 40.812 303.042 41.648 300.798 41.648C296.53 41.648 293.472 38.59 293.472 33.816C293.472 28.976 296.53 25.5659 301.128 25.5659C304.846 25.5659 307.464 27.568 308.212 30.714H305.462C304.736 28.734 303.108 27.832 301.106 27.832C298.048 27.832 296.046 30.12 296.046 33.64C296.046 37.16 298.026 39.404 301.04 39.404C303.064 39.404 305.66 38.238 305.792 35.224L305.924 35.268V34.784H300.908V32.694ZM310.641 35.818C310.641 32.342 313.017 29.944 316.427 29.944C319.859 29.944 322.235 32.342 322.235 35.818C322.235 39.294 319.859 41.67 316.427 41.67C313.017 41.67 310.641 39.294 310.641 35.818ZM313.105 35.796C313.105 38.106 314.425 39.602 316.427 39.602C318.451 39.602 319.771 38.106 319.771 35.796C319.771 33.464 318.451 31.99 316.427 31.99C314.425 31.99 313.105 33.464 313.105 35.796ZM324.134 35.818C324.134 32.342 326.51 29.944 329.92 29.944C333.352 29.944 335.728 32.342 335.728 35.818C335.728 39.294 333.352 41.67 329.92 41.67C326.51 41.67 324.134 39.294 324.134 35.818ZM326.598 35.796C326.598 38.106 327.918 39.602 329.92 39.602C331.944 39.602 333.264 38.106 333.264 35.796C333.264 33.464 331.944 31.99 329.92 31.99C327.918 31.99 326.598 33.464 326.598 35.796ZM346.644 30.186H348.778V40.746C348.778 44.024 346.578 46.07 343.234 46.07C340.396 46.07 338.35 44.508 337.976 42.154H340.374C340.726 43.452 341.848 44.09 343.256 44.09C345.258 44.09 346.424 42.902 346.424 41.142V39.382C345.786 40.526 344.4 41.208 342.75 41.208C339.824 41.208 337.69 39.074 337.69 35.598C337.69 32.078 339.824 29.966 342.772 29.966C344.422 29.966 345.698 30.626 346.402 31.748L346.644 30.186ZM343.256 39.096C345.126 39.096 346.38 37.71 346.38 35.62C346.38 33.53 345.148 32.078 343.256 32.078C341.364 32.078 340.176 33.53 340.176 35.62C340.176 37.71 341.364 39.096 343.256 39.096ZM354.041 25.104V41.45H351.643V25.104H354.041ZM367.664 35.576V36.478H359.04C359.084 38.59 360.47 39.69 362.23 39.69C363.55 39.69 364.65 39.074 365.112 37.842H367.554C366.96 40.13 364.936 41.67 362.186 41.67C358.82 41.67 356.598 39.338 356.598 35.796C356.598 32.276 358.82 29.944 362.164 29.944C365.442 29.944 367.664 32.188 367.664 35.576ZM362.164 31.858C360.558 31.858 359.238 32.848 359.062 34.806H365.222C365.09 32.848 363.792 31.858 362.164 31.858Z" fill="#292929"/>
</svg>
